# xmcd
#
# Track frame offsets:
#	150
#	15397
#	27597
#	40077
#	56712
#	72723
#	87967
#	102485
#	118973
#	131567
#	143643
#	158396
#	172691
#	186465
#	194305
#	201344
#	210226
#	213109
#	217002
#	224879
#	239671
#	256395
#	269604
#	284477
#	300499
#	314777
#	321125
#	335813
#	346122
#
# Disc length: 4783 seconds
#
# Revision: 0
# Processed by: cddbd v1.4PL0 Copyright (c) Steve Scherf et al.
# Submitted via: EasyCDDAExtractor 4.5.0.2
#
DISCID=d212ad1d
DTITLE=KONITOPOULOU - MARGARITIS - KOYKA
DYEAR=1900
DGENRE=
TTITLE0=лоу 'кеиьес поку  -  йомитопоукоу
TTITLE1=поиос амелос йакос  -  йомитопоукоу
TTITLE2=та хакассима соу латиа  -  йомитопоукоу
TTITLE3=г ацапг еимаи дыяо  -  йомитопоукоу
TTITLE4=паяапома  -  йомитопоукоу
TTITLE5=та лациа соу  -  йомитопоукоу
TTITLE6=ла опоу паы йи ам йоитаны  -  йомитопоукоу
TTITLE7=апомиа  -  йомитопоукоу
TTITLE8=жтаиеи г латиа соу  -  йомитопоукоу
TTITLE9=йоййимо жеццаяи  -  йомитопоукоу
TTITLE10=жоуятоумиасе г хакасса  -  йомитопоукоу
TTITLE11=йакойаияайи лоу  -  йомитопоукоу
TTITLE12=гхекес  -  йомитопоукоу
TTITLE13=хекеис ма та жтиноуле  -  циаммоукгс
TTITLE14=сто коцо тгс тилгс лоу  -  циаммоукгс
TTITLE15=втупойаядиа  -  циаммоукгс
TTITLE16=еимаи адуматом  -  циаммоукгс
TTITLE17=тыяа петы  -  циаммоукгс
TTITLE18=ас пяосевес  -  циаммоукгс
TTITLE19=хакасса лоу - циаммоукгс
TTITLE20=еисаи - циаммоукгс
TTITLE21=гсоум йапмос  -  йатеяима йоуйа
TTITLE22=дуо ебдоладес  -  йатеяима йоуйа
TTITLE23=тгс ваяауцгс астеяи лоу  -  йатеяима йоуйа
TTITLE24=дем йобы ецы тис тяеккес лоу  -  лаяцаяитгс
TTITLE25=йаи ти ециме  -  лаяцаяитгс
TTITLE26=лайаяи ма л' ацапацес  -  лаяцаяитгс
TTITLE27=тоу мтеябисг то пото  -  лаяцаяитгс
TTITLE28=помтиайо
EXTD=
EXTT0=
EXTT1=
EXTT2=
EXTT3=
EXTT4=
EXTT5=
EXTT6=
EXTT7=
EXTT8=
EXTT9=
EXTT10=
EXTT11=
EXTT12=
EXTT13=
EXTT14=
EXTT15=
EXTT16=
EXTT17=
EXTT18=
EXTT19=
EXTT20=
EXTT21=
EXTT22=
EXTT23=
EXTT24=
EXTT25=
EXTT26=
EXTT27=
EXTT28=
PLAYORDER=
